The 36th Chamber of Shaolin (1978) Blu Ray rip. English language, No subs
 
http://www.imdb.com/title/tt0078243/


General
Complete name                    : The 36th Chamber of Shaolin.mp4
Format                           : MPEG-4
Format profile                   : Base Media / Version 2
Codec ID                         : mp42
File size                        : 1.89 GiB
Duration                         : 1h 51mn
Overall bit rate                 : 2435 Kbps
Encoded date                     : UTC 2010-03-05 19:15:41
Tagged date                      : UTC 2010-03-05 20:01:31
Writing application              : HandBrake 0.9.4 2009112300

Video
ID                               : 1
Format                           : AVC
Format/Info                      : Advanced Video Codec
Format profile                   : Main@L3.0
Format settings, CABAC           : Yes
Format settings, ReFrames        : 2 frames
Codec ID                         : avc1
Codec ID/Info                    : Advanced Video Coding
Duration                         : 1h 51mn
Bit rate mode                    : Variable
Bit rate                         : 2348 Kbps
Width                            : 720 pixels
Height                           : 480 pixels
Display aspect ratio             : 2.35:1
Frame rate mode                  : Variable
Frame rate                       : 29.970 fps
Minimum frame rate               : 14.985 fps
Maximum frame rate               : 29.970 fps
Standard                         : NTSC
Resolution                       : 24 bits
Colorimetry                      : 4:2:0
Scan type                        : Progressive
Bits/(Pixel*Frame)               : 0.227
Stream size                      : 1.83 GiB (96%)
Writing library                  : x264 core 79
Encoding settings                : cabac=1 / ref=2 / deblock=1:0:0RP177

Audio
ID                               : 2
Format                           : AAC
Format/Info                      : Advanced Audio Codec
Format version                   : Version 4
Format profile                   : LC
Format settings, SBR             : No
Format settings, PS              : Yes
Codec ID                         : 40
Duration                         : 1h 51mn
Bit rate mode                    : Variable
Bit rate                         : 82.7 Kbps
Maximum bit rate                 : 111 Kbps
Channel(s)                       : 2 channels
Channel positions                : Front: L R
Sampling rate                    : 48.0 KHz
Resolution                       : 16 bits
Stream size                      : 65.8 MiB (3%)
Encoded date                     : UTC 2010-03-05 19:15:41
Tagged date                      : UTC 2010-03-05 20:01:31

